<svg width="300" height="300" viewBox="0 0 300 300" fill="none" xmlns="http://www.w3.org/2000/svg">
<path d="M0 216.803L60.4987 75H89.156L149.655 216.803H116.619L104.082 186.845H45.573L33.0355 216.803H0ZM74.8273 116.742L56.9165 159.283H92.5391L74.8273 116.742Z" fill="#474BFF"/>
<path d="M198.884 219C186.015 219 175.07 213.874 166.048 203.621C157.159 193.369 152.714 181.119 152.714 166.872C152.714 152.626 157.159 140.376 166.048 130.123C175.07 119.871 186.015 114.745 198.884 114.745C210.294 114.745 219.316 118.806 225.95 126.928V116.942H256V216.803H225.95V206.817C219.316 214.939 210.294 219 198.884 219ZM189.133 184.648C193.379 189.308 198.884 191.638 205.651 191.638C212.417 191.638 217.857 189.308 221.969 184.648C226.215 179.988 228.338 174.062 228.338 166.872C228.338 159.682 226.215 153.757 221.969 149.097C217.857 144.437 212.417 142.107 205.651 142.107C198.884 142.107 193.379 144.437 189.133 149.097C185.02 153.757 182.964 159.682 182.964 166.872C182.964 174.062 185.02 179.988 189.133 184.648Z" fill="#474BFF"/>
<rect x="276" y="63" width="10" height="165.743" fill="#474BFF"/>
<rect x="261" y="56" width="39" height="10" rx="4" fill="#474BFF"/>
<rect x="261" y="228.871" width="39" height="10" rx="4" fill="#474BFF"/>
</svg>
