<svg width="280" height="48" viewBox="0 0 280 48" fill="none" xmlns="http://www.w3.org/2000/svg">
<g clip-path="url(#clip0_3393_239)">
<path fill-rule="evenodd" clip-rule="evenodd" d="M3.2339 15.7238C-1.07797 20.0356 -1.07797 27.0257 3.2339 31.3372L15.7241 43.8278C20.0359 48.1392 27.026 48.1392 31.3375 43.8278L43.8281 31.3372C48.1395 27.0253 48.1395 20.0352 43.8281 15.7238L31.3375 3.23359C27.0256 -1.07786 20.0355 -1.07786 15.7241 3.23359L3.2339 15.7238ZM28.9953 28.9954C32.0136 25.9771 32.0136 21.0839 28.9953 18.066C25.9774 15.0477 21.0842 15.0477 18.0663 18.066C15.048 21.0843 15.048 25.9771 18.0663 28.9954C21.0846 32.0133 25.9774 32.0133 28.9957 28.9954H28.9953Z" fill="#474BFF"/>
<path d="M65.6698 31.8744C65.6873 28.3968 67.8127 26.3593 70.8689 26.3593C73.9075 26.3593 75.699 28.309 75.6815 31.6287V47.4715H83.1638V30.2936C83.1813 23.9706 79.4576 20.1416 73.8371 20.1416C69.7449 20.1416 67.0049 22.0738 65.7752 25.2528H65.4591V11.5004H58.1875V47.4715H65.6698V31.8744V31.8744ZM94.7668 47.9808C98.7536 47.9808 101.335 46.2418 102.653 43.7304H102.864V47.4715H109.96V29.2751C109.96 22.8467 104.515 20.1416 98.5079 20.1416C92.0442 20.1416 87.7937 23.2332 86.7573 28.1511L93.6778 28.7129C94.1871 26.9214 95.7853 25.6043 98.4725 25.6043C101.019 25.6043 102.477 26.8864 102.477 29.0993V29.2051C102.477 30.9437 100.633 31.1719 95.9436 31.6287C90.6038 32.1205 85.8091 33.9119 85.8091 39.9363C85.8091 45.2757 89.6202 47.9808 94.7668 47.9808V47.9808ZM96.9093 42.8167C94.6085 42.8167 92.9574 41.7457 92.9574 39.6906C92.9574 37.5827 94.6964 36.5462 97.3311 36.1777C98.9643 35.9495 101.634 35.5631 102.53 34.9655V37.8288C102.53 40.6563 100.194 42.8167 96.9093 42.8167ZM136.233 28.1861C135.566 23.2153 131.561 20.1416 124.746 20.1416C117.843 20.1416 113.294 23.3385 113.312 28.5376C113.294 32.5769 115.841 35.1941 121.11 36.2481L125.782 37.1788C128.136 37.6531 129.207 38.5138 129.242 39.866C129.207 41.4646 127.468 42.606 124.851 42.606C122.182 42.606 120.408 41.4646 119.951 39.2688L112.592 39.6553C113.294 44.8193 117.685 47.9983 124.834 47.9983C131.824 47.9983 136.83 44.4329 136.848 39.111C136.83 35.2116 134.283 32.8755 129.049 31.8044L124.166 30.8208C121.654 30.2761 120.724 29.4154 120.741 28.1157C120.724 26.5 122.551 25.446 124.869 25.446C127.468 25.446 129.014 26.8689 129.383 28.6075L136.233 28.1861V28.1861ZM147.063 31.8744C147.081 28.3968 149.206 26.3593 152.262 26.3593C155.3 26.3593 157.092 28.309 157.074 31.6287V47.4715H164.557V30.2936C164.574 23.9706 160.851 20.1416 155.23 20.1416C151.138 20.1416 148.398 22.0738 147.169 25.2528H146.852V11.5004H139.581V47.4715H147.063V31.8744ZM175.949 31.8744C175.966 28.3968 178.039 26.3593 181.06 26.3593C184.063 26.3593 185.873 28.3264 185.855 31.6287V47.4715H193.337V30.2936C193.337 24.006 189.649 20.1416 184.028 20.1416C180.024 20.1416 177.126 22.1088 175.914 25.2528H175.598V20.4931H168.467V47.4715H175.949V31.8744V31.8744ZM209.445 47.9983C217.63 47.9983 222.724 42.3953 222.724 34.0877C222.724 25.7271 217.63 20.1416 209.445 20.1416C201.26 20.1416 196.167 25.7271 196.167 34.0877C196.167 42.3953 201.26 47.9983 209.445 47.9983ZM209.481 42.2021C205.705 42.2021 203.772 38.742 203.772 34.0348C203.772 29.3275 205.705 25.8504 209.481 25.8504C213.186 25.8504 215.119 29.3279 215.119 34.0348C215.119 38.742 213.186 42.2021 209.481 42.2021ZM235.552 47.9104C239.908 47.9104 242.174 45.399 243.21 43.1507H243.526V47.4715H250.903V11.5H243.438V25.0246H243.21C242.209 22.8292 240.048 20.1416 235.534 20.1416C229.615 20.1416 224.61 24.7435 224.61 34.0173C224.61 43.0454 229.405 47.9104 235.552 47.9104V47.9104ZM237.923 41.9564C234.252 41.9564 232.25 38.6892 232.25 33.9823C232.25 29.31 234.217 26.0961 237.923 26.0961C241.559 26.0961 243.596 29.1697 243.596 33.9823C243.596 38.7945 241.524 41.9564 237.923 41.9564V41.9564ZM267.371 47.9983C274.046 47.9983 278.542 44.749 279.596 39.7431L272.675 39.2867C271.92 41.3414 269.988 42.4128 267.494 42.4128C263.753 42.4128 261.382 39.9363 261.382 35.9141V35.8966H279.754V33.8416C279.754 24.6732 274.203 20.1416 267.073 20.1416C259.133 20.1416 253.987 25.7796 253.987 34.1052C253.987 42.6589 259.063 47.9983 267.371 47.9983V47.9983ZM261.382 31.2597C261.54 28.1861 263.876 25.7271 267.195 25.7271C270.445 25.7271 272.693 28.0458 272.71 31.2597H261.382Z" fill="#474BFF"/>
</g>
<defs>
<clipPath id="clip0_3393_239">
<rect width="279.864" height="48" fill="white"/>
</clipPath>
</defs>
</svg>
