<svg width="512" height="512" viewBox="0 0 512 512" fill="none" xmlns="http://www.w3.org/2000/svg">
<g clip-path="url(#clip0)">
<g clip-path="url(#clip1)">
<path d="M425.462 31.9603H271.615C266.308 31.9603 262 24.9741 262 16.366C262 7.75787 266.308 0.771597 271.615 0.771597H425.462C430.77 0.771597 435.078 7.75787 435.078 16.366C435.078 24.9741 430.77 31.9603 425.462 31.9603Z" fill="#474BFF"/>
<path d="M502.386 104.044H271.615C266.308 104.044 262 97.0574 262 88.4493C262 79.8412 266.308 72.8549 271.615 72.8549H502.386C507.694 72.8549 512.001 79.8412 512.001 88.4493C512.001 97.0574 507.694 104.044 502.386 104.044Z" fill="#474BFF"/>
<path d="M425.462 176.127H271.615C266.308 176.127 262 169.141 262 160.533C262 151.925 266.308 144.938 271.615 144.938H425.462C430.77 144.938 435.078 151.925 435.078 160.533C435.078 169.141 430.77 176.127 425.462 176.127Z" fill="#474BFF"/>
<path d="M502.386 248.21H271.615C266.308 248.21 262 241.224 262 232.616C262 224.008 266.308 217.022 271.615 217.022H502.386C507.694 217.022 512.001 224.008 512.001 232.616C512.001 241.224 507.694 248.21 502.386 248.21Z" fill="#474BFF"/>
<path d="M425.462 320.294H271.615C266.308 320.294 262 313.307 262 304.699C262 296.091 266.308 289.105 271.615 289.105H425.462C430.77 289.105 435.078 296.091 435.078 304.699C435.078 313.307 430.77 320.294 425.462 320.294Z" fill="#474BFF"/>
<path d="M205.408 151.972L163.534 115.232C158.375 110.709 150.427 111.101 145.787 116.146C141.147 121.166 141.566 128.912 146.725 133.434L164.254 148.821H38.5625C31.6196 148.821 26 154.298 26 161.065C26 167.832 31.6196 173.309 38.5625 173.309H164.271L146.716 188.696C141.557 193.226 141.139 200.964 145.778 205.984C148.266 208.67 151.691 210.041 155.125 210.041C158.123 210.041 161.13 209.004 163.525 206.898L205.4 170.175C208.047 167.856 209.562 164.542 209.562 161.073C209.562 157.604 208.047 154.29 205.408 151.972Z" fill="#474BFF"/>
</g>
<path d="M73.8008 512V409.76H96.6968V449.792H137.881V409.76H160.777V512H137.881V471.536H96.6968V512H73.8008Z" fill="#474BFF"/>
<path d="M200.795 512V431.648H174.731V409.76H250.187V431.648H223.835V512H200.795Z" fill="#474BFF"/>
<path d="M264.207 409.76H285.087L316.911 453.824L349.023 409.76H369.903V512H346.863V449.072L317.055 490.256L287.103 448.928V512H264.207V409.76Z" fill="#474BFF"/>
<path d="M391.473 512V409.76H414.369V490.112H456.705V512H391.473Z" fill="#474BFF"/>
</g>
<defs>
<clipPath id="clip0">
<rect width="512" height="512" fill="white"/>
</clipPath>
<clipPath id="clip1">
<rect width="512" height="346" fill="white"/>
</clipPath>
</defs>
</svg>
