<svg width="300" height="300" viewBox="0 0 300 300" fill="none" xmlns="http://www.w3.org/2000/svg">
<g clip-path="url(#clip0)">
<path d="M300 32.6363V268.021C300 274.063 295.084 278.977 289.043 278.977H10.9497C4.90952 278.977 0 274.063 0 268.021V32.6363C0 26.5961 4.90952 21.6797 10.9497 21.6797H289.043C295.084 21.6797 300 26.5961 300 32.6363Z" fill="#A5A7FF"/>
<path d="M300 32.6363V268.021C300 274.063 295.084 278.977 289.043 278.977H150.007V21.6797H289.043C295.084 21.6797 300 26.5961 300 32.6363V32.6363Z" fill="#A5A7FF"/>
<path d="M300 32.6363V61.393H179.835L161.08 76.8951H0V32.6363C0 26.5961 4.90952 21.6797 10.9497 21.6797H289.043C295.084 21.6797 300 26.5961 300 32.6363Z" fill="#DDDEFF"/>
<path d="M65.5586 58.8615C65.2771 58.8615 64.9841 58.8478 64.6957 58.8203C64.4096 58.7906 64.1235 58.7494 63.8397 58.6899C63.5651 58.6327 63.2835 58.5617 63.0089 58.4793C62.7342 58.3969 62.4641 58.2985 62.2009 58.1863C61.9354 58.0811 61.6745 57.9575 61.4204 57.8247C61.1687 57.6897 60.9169 57.5363 60.6834 57.3784C60.4431 57.2205 60.2074 57.0511 59.9854 56.868C59.7633 56.6872 59.5459 56.488 59.3468 56.2889C59.1408 56.0829 58.9485 55.8678 58.7677 55.6435C58.5846 55.4283 58.4106 55.1926 58.2504 54.9522C58.0925 54.7119 57.946 54.467 57.811 54.2152C57.6782 53.9635 57.5546 53.698 57.4425 53.4348C57.3372 53.1715 57.2365 52.8969 57.1564 52.6268C57.0671 52.3521 56.9962 52.0706 56.9458 51.7891C56.8863 51.5076 56.8451 51.2215 56.8153 50.9399C56.7856 50.6515 56.7696 50.3586 56.7696 50.0725C56.7696 49.7841 56.7856 49.498 56.8153 49.2096C56.8451 48.9235 56.8863 48.6374 56.9458 48.3559C56.9984 48.0743 57.0671 47.7997 57.1564 47.5227C57.2388 47.2481 57.3372 46.978 57.4425 46.7148C57.5546 46.4516 57.6759 46.1884 57.811 45.9343C57.946 45.6825 58.0925 45.4308 58.2504 45.1973C58.4106 44.957 58.5846 44.7235 58.7677 44.4992C58.9485 44.2772 59.1431 44.0598 59.3468 43.8606C59.5459 43.6569 59.7633 43.4624 59.9854 43.2816C60.2097 43.0984 60.4431 42.9245 60.6834 42.7666C60.9169 42.6064 61.1687 42.4599 61.4204 42.3271C61.6745 42.1921 61.9354 42.0685 62.2009 41.9563C62.4641 41.8465 62.7342 41.7526 63.0089 41.6702C63.2835 41.581 63.5651 41.5123 63.8397 41.4597C64.1212 41.4001 64.4096 41.3544 64.6957 41.3292C65.2702 41.272 65.8516 41.272 66.4238 41.3292C66.7053 41.3544 66.9937 41.4001 67.2752 41.4597C67.5545 41.5123 67.836 41.581 68.1129 41.6702C68.3807 41.7526 68.6577 41.8465 68.9209 41.9563C69.1841 42.0685 69.4473 42.1921 69.6991 42.3271C69.9532 42.4599 70.1981 42.6064 70.4384 42.7666C70.6787 42.9245 70.9122 43.0984 71.1296 43.2816C71.3585 43.4624 71.5691 43.6569 71.7751 43.8606C71.981 44.0598 72.1733 44.2772 72.3541 44.4992C72.5372 44.7235 72.7066 44.957 72.8691 45.1973C73.0225 45.4308 73.1758 45.6825 73.3086 45.9343C73.4436 46.1884 73.5672 46.4516 73.6725 46.7148C73.7846 46.978 73.8831 47.2481 73.9655 47.5227C74.0479 47.7997 74.1188 48.0743 74.176 48.3559C74.2355 48.6374 74.2767 48.9235 74.3065 49.2096C74.334 49.498 74.3477 49.7841 74.3477 50.0725C74.3477 50.3586 74.334 50.6515 74.3065 50.9399C74.2767 51.2215 74.2355 51.5076 74.176 51.7891C74.1165 52.0706 74.0479 52.3521 73.9655 52.6268C73.8831 52.8969 73.7846 53.1715 73.6725 53.4348C73.5672 53.698 73.4436 53.9635 73.3086 54.2152C73.1758 54.467 73.0225 54.7119 72.8691 54.9522C72.7066 55.1926 72.5372 55.4283 72.3541 55.6435C72.1733 55.8678 71.9788 56.0829 71.7751 56.2889C71.5691 56.488 71.3585 56.6872 71.1296 56.868C70.9122 57.0511 70.6787 57.2205 70.4384 57.3784C70.1981 57.5363 69.9532 57.6897 69.6991 57.8247C69.4473 57.9575 69.1841 58.0811 68.9209 58.1863C68.6577 58.2985 68.3807 58.3969 68.1129 58.4793C67.836 58.5617 67.5568 58.6327 67.2752 58.6899C66.9914 58.7494 66.7053 58.7906 66.4238 58.8203C66.1377 58.8478 65.8447 58.8615 65.5586 58.8615Z" fill="white"/>
<path d="M37.4336 58.8615C37.1475 58.8615 36.8591 58.8478 36.573 58.8203C36.2846 58.7906 35.9985 58.7494 35.717 58.6899C35.4355 58.6327 35.1608 58.5617 34.8839 58.4793C34.6092 58.3969 34.3391 58.2985 34.0759 58.1863C33.8127 58.0811 33.5495 57.9575 33.2977 57.8247C33.046 57.6897 32.7942 57.5363 32.5584 57.3784C32.3181 57.2205 32.0847 57.0511 31.8604 56.868C31.6383 56.6872 31.4209 56.4926 31.2218 56.2889C31.0181 56.0829 30.8235 55.8678 30.6427 55.6435C30.4619 55.4283 30.2856 55.1926 30.1277 54.9522C29.9698 54.7119 29.8233 54.467 29.6883 54.2152C29.5532 53.9635 29.4296 53.698 29.3175 53.4348C29.2122 53.1715 29.1138 52.8969 29.0314 52.6268C28.9444 52.3521 28.8734 52.0706 28.8208 51.7891C28.7613 51.5076 28.7224 51.2215 28.6926 50.9399C28.6629 50.6515 28.6446 50.3586 28.6446 50.0725C28.6446 49.7841 28.6629 49.498 28.6926 49.2096C28.7224 48.9235 28.7613 48.6374 28.8208 48.3559C28.8734 48.0743 28.9444 47.7997 29.0314 47.5227C29.1138 47.2481 29.2145 46.978 29.3175 46.7148C29.4296 46.4447 29.5532 46.1884 29.6883 45.9343C29.8233 45.6825 29.9698 45.4308 30.1277 45.1973C30.2856 44.957 30.4619 44.7235 30.6427 44.4992C30.8258 44.2772 31.0181 44.0598 31.2218 43.8606C31.4209 43.6569 31.6383 43.4624 31.8604 43.2816C32.0847 43.0984 32.3181 42.9245 32.5584 42.7666C32.7942 42.6064 33.046 42.4599 33.2977 42.3271C33.5495 42.1921 33.8127 42.0685 34.0759 41.9563C34.3391 41.851 34.6092 41.7526 34.8839 41.6702C35.1608 41.581 35.4355 41.5123 35.717 41.4597C35.9985 41.4001 36.2846 41.3589 36.573 41.3292C37.1475 41.272 37.7266 41.272 38.3011 41.3292C38.5826 41.3589 38.8687 41.4001 39.1502 41.4597C39.4318 41.5123 39.7133 41.581 39.9879 41.6702C40.258 41.7526 40.5327 41.851 40.7959 41.9563C41.0614 42.0685 41.3246 42.1921 41.5764 42.3271C41.8282 42.4599 42.0753 42.6064 42.3157 42.7666C42.5537 42.9245 42.7895 43.0984 43.0069 43.2816C43.2289 43.4624 43.4464 43.6569 43.6501 43.8606C43.856 44.0598 44.0506 44.2772 44.2314 44.4992C44.4122 44.7235 44.5816 44.957 44.7395 45.1973C44.8997 45.4308 45.0508 45.6825 45.1859 45.9343C45.3209 46.1884 45.4445 46.4447 45.5498 46.7148C45.6596 46.978 45.7603 47.2481 45.8427 47.5227C45.9229 47.7997 45.9938 48.0743 46.0533 48.3559C46.1105 48.6374 46.1517 48.9235 46.1815 49.2096C46.2112 49.498 46.2227 49.7841 46.2227 50.0725C46.2227 50.3586 46.2112 50.6515 46.1815 50.9399C46.1517 51.2215 46.1105 51.5076 46.0533 51.7891C45.9938 52.0706 45.9229 52.3521 45.8427 52.6268C45.7603 52.8969 45.6596 53.1715 45.5498 53.4348C45.4445 53.698 45.3209 53.9635 45.1859 54.2152C45.0508 54.467 44.8997 54.7119 44.7395 54.9522C44.5816 55.1926 44.4122 55.4283 44.2314 55.6435C44.0483 55.8678 43.856 56.0829 43.6501 56.2889C43.4464 56.4926 43.2289 56.6872 43.0069 56.868C42.7895 57.0511 42.5537 57.2205 42.3157 57.3784C42.0753 57.5363 41.8282 57.6897 41.5764 57.8247C41.3246 57.9575 41.0614 58.0811 40.7959 58.1863C40.5327 58.2985 40.258 58.3969 39.9879 58.4793C39.7133 58.5617 39.4318 58.6327 39.1502 58.6899C38.8687 58.7494 38.5826 58.7906 38.3011 58.8203C38.0127 58.8478 37.7197 58.8615 37.4336 58.8615Z" fill="white"/>
<path d="M94.2673 58.8615C93.9857 58.8615 93.6928 58.8478 93.4067 58.8203C93.1183 58.7906 92.8322 58.7494 92.5507 58.6899C92.276 58.6327 91.9945 58.5617 91.7175 58.4793C91.4429 58.3969 91.1728 58.2985 90.9096 58.1863C90.6464 58.0811 90.3831 57.9575 90.1314 57.8247C89.8796 57.6897 89.6278 57.5363 89.3921 57.3784C89.1518 57.2205 88.9183 57.0511 88.6963 56.868C88.472 56.6872 88.2568 56.4926 88.0554 56.2889C87.8517 56.0829 87.6572 55.8678 87.4763 55.6435C87.2955 55.4283 87.1193 55.1926 86.9614 54.9522C86.8034 54.7119 86.657 54.467 86.5219 54.2152C86.3869 53.9635 86.2633 53.698 86.1534 53.4348C86.0458 53.1715 85.9474 52.8969 85.865 52.6268C85.778 52.3521 85.7071 52.0706 85.6544 51.7891C85.5949 51.5076 85.556 51.2215 85.5263 50.9399C85.4965 50.6515 85.4782 50.3586 85.4782 50.0725C85.4782 49.7841 85.4965 49.498 85.5263 49.2096C85.556 48.9235 85.5949 48.6374 85.6544 48.3559C85.7071 48.0743 85.778 47.7997 85.865 47.5227C85.9474 47.2481 86.0481 46.978 86.1534 46.7148C86.2633 46.4516 86.3869 46.1884 86.5219 45.9343C86.657 45.6825 86.8034 45.4308 86.9614 45.1973C87.1193 44.957 87.2955 44.7235 87.4763 44.4992C87.6595 44.2772 87.8517 44.0598 88.0554 43.8606C88.2568 43.6569 88.472 43.4624 88.6963 43.2816C88.9183 43.0984 89.1518 42.9245 89.3921 42.7666C89.6278 42.6064 89.8796 42.4599 90.1314 42.3271C90.3831 42.1921 90.6464 42.0685 90.9096 41.9563C91.1728 41.851 91.4429 41.7526 91.7175 41.6702C91.9945 41.581 92.276 41.5123 92.5507 41.4597C92.8322 41.4001 93.1183 41.3589 93.4067 41.3292C93.9812 41.272 94.5602 41.272 95.1347 41.3292C95.4208 41.3589 95.7024 41.4001 95.9908 41.4597C96.2654 41.5123 96.5469 41.581 96.8216 41.6702C97.0985 41.7526 97.3663 41.851 97.6295 41.9563C97.8951 42.0685 98.1583 42.1921 98.41 42.3271C98.6618 42.4599 98.9136 42.6064 99.1493 42.7666C99.3874 42.9245 99.6231 43.0984 99.8451 43.2816C100.067 43.4624 100.285 43.6569 100.484 43.8606C100.69 44.0598 100.882 44.2772 101.063 44.4992C101.246 44.7235 101.415 44.957 101.58 45.1973C101.731 45.4308 101.884 45.6825 102.02 45.9343C102.155 46.1884 102.276 46.4516 102.381 46.7148C102.493 46.978 102.594 47.2481 102.674 47.5227C102.757 47.7997 102.827 48.0743 102.887 48.3559C102.944 48.6374 102.985 48.9235 103.015 49.2096C103.045 49.498 103.056 49.7841 103.056 50.0725C103.056 50.3586 103.043 50.6515 103.015 50.9399C102.985 51.2215 102.944 51.5076 102.887 51.7891C102.827 52.0706 102.757 52.3521 102.674 52.6268C102.594 52.8969 102.493 53.1715 102.381 53.4348C102.276 53.698 102.155 53.9635 102.02 54.2152C101.884 54.467 101.731 54.7119 101.58 54.9522C101.415 55.1926 101.246 55.4283 101.063 55.6435C100.882 55.8678 100.69 56.0829 100.484 56.2889C100.285 56.488 100.067 56.6872 99.8451 56.868C99.6231 57.0511 99.3874 57.2205 99.1493 57.3784C98.9136 57.5363 98.6618 57.6897 98.41 57.8247C98.1583 57.9575 97.8951 58.0811 97.6295 58.1863C97.3663 58.2985 97.0985 58.3969 96.8216 58.4793C96.5469 58.5617 96.2654 58.6327 95.9908 58.6899C95.7024 58.7494 95.4208 58.7906 95.1347 58.8203C94.8463 58.8478 94.5534 58.8615 94.2673 58.8615Z" fill="white"/>
<path d="M300 32.6363V61.393H179.835L161.08 76.8951H150.007V21.6797H289.043C295.084 21.6797 300 26.5961 300 32.6363Z" fill="#CED0FF"/>
<path d="M263.667 134.843V220.468C263.667 225.982 259.179 230.47 253.661 230.47H46.3509C40.8325 230.47 36.3441 225.982 36.3441 220.468V134.843C36.3441 129.33 40.8325 124.841 46.3509 124.841H253.661C259.179 124.841 263.667 129.33 263.667 134.843Z" fill="white"/>
<path d="M56 204V152H67.7798V172.361H88.9685V152H100.748V204H88.9685V183.42H67.7798V204H56Z" fill="#474BFF"/>
<path d="M121.337 204V163.132H107.928V152H146.749V163.132H133.191V204H121.337Z" fill="#474BFF"/>
<path d="M153.962 152H164.705L181.078 174.411L197.599 152H208.341V204H196.488V171.994L181.152 192.941L165.742 171.921V204H153.962V152Z" fill="#474BFF"/>
<path d="M219.439 204V152H231.219V192.868H253V204H219.439Z" fill="#474BFF"/>
</g>
<defs>
<clipPath id="clip0">
<rect width="300" height="300" fill="white"/>
</clipPath>
</defs>
</svg>
