<svg width="300" height="300" viewBox="0 0 300 300" fill="none" xmlns="http://www.w3.org/2000/svg">
<path d="M241.158 150C241.158 200.347 200.347 241.158 150 241.158L142.757 269.276L150 300C232.845 300 300 232.845 300 150L269.29 142.757L241.158 150Z" fill="#BBBCFF"/>
<path d="M150 0C67.1549 0 0 67.1549 0 150L27.4541 153.622L58.8416 150C58.8416 99.6527 99.6527 58.8416 150 58.8416L153.622 28.6008L150 0Z" fill="#6D71FF"/>
<path d="M0 150C0 232.845 67.1549 300 150 300V241.158C99.6527 241.158 58.8416 200.347 58.8416 150H0Z" fill="#9496FF"/>
<path d="M300 150C300 67.1549 232.845 0 150 0V58.8416C200.347 58.8416 241.158 99.6527 241.158 150H300Z" fill="#474BFF"/>
<path d="M300 150H275.632C275.632 75.4465 221.258 13.6055 150 1.96758V0C232.847 0 300 67.1531 300 150Z" fill="#474BFF"/>
<path d="M268.823 74.8312C276.018 83.3965 275.589 96.2297 267.537 104.282C263.415 108.399 257.934 110.668 252.109 110.668C248.264 110.668 244.57 109.678 241.322 107.82L234.182 114.96C229.516 103.763 222.683 93.6949 214.202 85.2861L255.954 43.8176C263.319 51.1699 269.922 59.2764 275.633 68.0227L268.823 74.8312Z" fill="#474BFF"/>
<path d="M300 150C300 232.847 232.847 300 150 300V298.032C221.258 286.395 275.632 224.554 275.632 150H300Z" fill="#BBBCFF"/>
<path d="M212.675 55.193L134.77 133.098C130.171 137.696 130.171 145.153 134.77 149.752L122.418 162.104C118.23 166.291 117.919 173.115 121.956 177.449C126.193 181.999 133.32 182.094 137.679 177.735L150.216 165.198C154.815 169.797 162.271 169.797 166.87 165.198L244.775 87.293L212.675 55.193Z" fill="#C7C8FF"/>
<path d="M230.672 101.396L244.775 87.293L212.675 55.193L198.572 69.2965C209.272 79.9963 219.971 90.6967 230.672 101.396Z" fill="#B8B9FF"/>
<path d="M244.774 87.2959L166.87 165.199C164.571 167.499 161.558 168.652 158.547 168.652C155.529 168.652 152.516 167.499 150.217 165.199L137.68 177.737C133.321 182.095 126.193 181.998 121.955 177.446C120.084 175.443 119.149 172.901 119.1 170.342C121.985 170.415 124.889 169.352 127.092 167.149L137.209 157.032C138.468 155.774 140.422 155.51 141.952 156.42C143.797 157.516 145.876 158.065 147.959 158.065C150.972 158.065 153.983 156.912 156.283 154.612L234.187 76.7086L244.774 87.2959Z" fill="#B8B9FF"/>
<path d="M258.998 81.9621C255.029 77.993 255.029 71.557 258.998 67.5879L275.306 51.2795C282.656 43.9295 282.656 32.0121 275.306 24.6615C267.956 17.3115 256.039 17.3115 248.689 24.6615L232.38 40.9699C228.411 44.9391 221.975 44.9391 218.006 40.9699C214.201 37.1643 208.03 37.1643 204.224 40.9699C200.419 44.7756 200.419 50.9461 204.224 54.7518L245.217 95.744C249.022 99.5496 255.193 99.5496 258.998 95.744C262.804 91.9383 262.804 85.7678 258.998 81.9621Z" fill="#2F32B5"/>
<path d="M258.996 67.5873C255.03 71.5594 255.03 77.9936 258.996 81.9598C260.897 83.867 261.851 86.3602 261.851 88.8533C261.851 91.3465 260.897 93.8391 258.996 95.7469C255.193 99.5496 249.024 99.5496 245.215 95.7469L232.932 83.4633C236.74 87.266 242.91 87.266 246.712 83.4633C248.62 81.5619 249.568 79.0629 249.568 76.5697C249.568 74.0766 248.62 71.5775 246.712 69.6762C242.747 65.7105 242.747 59.2758 246.712 55.3037L263.023 38.9936C268.16 33.8625 269.705 26.4984 267.664 20.0215C270.459 20.8969 273.091 22.4479 275.306 24.6633C282.659 32.0092 282.659 43.9307 275.306 51.2771L258.996 67.5873Z" fill="#2F32B5"/>
</svg>
