<svg width="512" height="512" viewBox="0 0 512 512" fill="none" xmlns="http://www.w3.org/2000/svg">
<path d="M204.8 417.855L212.141 464.09L204.8 506.462H102.4L94.3059 465.721L102.4 417.855H204.8Z" fill="#6064FF"/>
<path d="M409.6 417.855L420.456 462.635L409.6 503.875H307.2L297.098 462.876L307.2 417.855H409.6Z" fill="#AFB1FF"/>
<path d="M102.4 425.066V511.601L23.9023 506.45C12.5188 506.45 3.29864 497.23 3.29864 485.847L0 425.066L102.4 425.066Z" fill="#474BFF"/>
<path d="M204.8 417.855H307.2V506.462H204.8V417.855Z" fill="#8688FF"/>
<path d="M512 425.066V490.998C512 492.777 511.774 494.502 511.352 496.149C511.352 496.149 496.936 509.136 487.331 509.136L409.601 508.742V417.855L512 425.066Z" fill="#DDDDFF"/>
<path d="M204.8 496.149L215.823 503.875L204.8 511.601H102.4L97.6375 503.875L102.4 496.149H204.8Z" fill="#5053D6"/>
<path d="M409.6 496.149L420.456 506.462L409.6 511.601H307.2L302.018 506.462L307.2 496.149H409.6Z" fill="#9496D9"/>
<path d="M512 32.0755V425H3.21499L1 35.6407C1 20.6887 6.30607 4.56756 15.199 1.00878C16.8461 0.349631 18.5725 0 20.3525 0H491.385C502.775 0 512 14.3538 512 32.0755V32.0755Z" fill="#F2F3FB"/>
<path d="M204.8 496.149H307.2V511.601H204.8V496.149Z" fill="#6D6ED6"/>
<path d="M511.351 496.149C509.064 505.039 500.998 511.601 491.396 511.601H409.6V496.149H511.351Z" fill="#C4C4E3"/>
<path d="M102.4 496.149V511.601H20.6036C9.22012 511.601 0 502.381 0 490.998V425.066L7.5 425.066L15.4527 425.066V473.485C15.4527 486.001 25.6 496.149 38.1167 496.149H102.4Z" fill="#3D41D9"/>
<path fill-rule="evenodd" clip-rule="evenodd" d="M343.662 168.597C358.893 168.597 371.217 156.826 371.217 142.298C371.217 127.771 358.893 116 343.662 116C328.43 116 316.079 127.771 316.079 142.298C316.079 156.826 328.43 168.597 343.662 168.597V168.597ZM345.268 327.844H276.255L263.045 328L263.156 327.844H96.4401C91.4552 327.844 89.5166 324.586 92.2306 320.535L209.375 142.611C212.034 138.57 216.409 138.488 219.151 142.419L304.17 265.37L336.073 216.797C338.732 212.773 343.163 212.664 345.988 216.557L419.653 317.759C422.478 321.646 420.705 324.915 415.776 325.06L350.142 326.982L344.742 327.047L345.24 327.849L345.268 327.844Z" fill="#474BFF"/>
</svg>
