<svg width="280" height="48" viewBox="0 0 280 48" fill="none" xmlns="http://www.w3.org/2000/svg">
<g clip-path="url(#clip0_3393_185)">
<path d="M60 33.8919V12.3984H64.8399V33.8919H60Z" fill="#474BFF"/>
<path d="M69.9219 33.8919V12.3984H74.9006L80.5038 23.0844L82.6202 27.8376H82.759C82.6549 26.6927 82.5161 25.4264 82.3773 24.0212C82.2385 22.6161 82.1692 21.2803 82.1692 19.9966V12.3984H86.7836V33.8919H81.8049L76.1843 23.1712L74.0679 18.4874H73.9291C74.0332 19.667 74.172 20.9507 74.3108 22.3038C74.4496 23.6743 74.5189 24.9927 74.5189 26.259V33.8745H69.9219V33.8919Z" fill="#474BFF"/>
<path d="M91.8359 33.8919V12.3984H97.9075C99.5555 12.3984 101.047 12.6066 102.366 13.0229C103.684 13.4393 104.812 14.0811 105.766 14.9485C106.703 15.8159 107.431 16.9261 107.934 18.2619C108.437 19.5976 108.698 21.1936 108.698 23.0498C108.698 24.8886 108.437 26.5019 107.934 27.855C107.431 29.2254 106.72 30.3357 105.801 31.2377C104.881 32.1398 103.771 32.799 102.487 33.2327C101.204 33.6664 99.7637 33.8919 98.1851 33.8919H91.8359ZM96.6932 29.954H97.6126C98.532 29.954 99.3647 29.8326 100.111 29.5897C100.857 29.3469 101.498 28.9652 102.019 28.4275C102.539 27.8897 102.956 27.1784 103.251 26.2937C103.545 25.409 103.702 24.3335 103.702 23.0324C103.702 21.766 103.545 20.6905 103.251 19.8231C102.956 18.9558 102.539 18.2619 102.019 17.7414C101.498 17.221 100.857 16.8567 100.111 16.6312C99.3647 16.4057 98.532 16.3016 97.6126 16.3016H96.6932V29.954Z" fill="#474BFF"/>
<path d="M112.773 33.8919V12.3984H117.613V33.8919H112.773Z" fill="#474BFF"/>
<path d="M122.695 33.8919V12.3984H136.14V16.4924H127.535V20.8119H134.856V24.8712H127.535V29.8152H136.469V33.9092H122.695V33.8919Z" fill="#474BFF"/>
<path d="M147.344 33.8919V12.3984H152.184V20.6732H159.608V12.3984H164.483V33.8919H159.608V24.9233H152.184V33.8919H147.344Z" fill="#474BFF"/>
<path d="M166.828 33.8919L173.542 12.3984H179.37L186.101 33.8919H180.966L179.648 28.7744H173.091L171.772 33.8919H166.828ZM174.6 23.0151L174.079 24.9927H178.659L178.156 23.0151C177.844 21.9395 177.549 20.7946 177.271 19.5803C176.994 18.366 176.699 17.2037 176.421 16.0934H176.282C176.022 17.2384 175.745 18.4006 175.467 19.5976C175.207 20.7946 174.912 21.9395 174.6 23.0151Z" fill="#474BFF"/>
<path d="M197.076 34.2775C195.706 34.2775 194.422 34.0347 193.225 33.5663C192.011 33.0979 190.953 32.404 190.051 31.4673C189.131 30.5478 188.42 29.4029 187.9 28.0151C187.379 26.6447 187.102 25.0487 187.102 23.2446C187.102 21.4578 187.379 19.8792 187.934 18.474C188.489 17.0862 189.218 15.8893 190.137 14.9352C191.057 13.9637 192.132 13.2351 193.364 12.732C194.596 12.229 195.897 11.9688 197.25 11.9688C198.638 11.9688 199.869 12.2463 200.98 12.8014C202.072 13.3565 202.992 14.0157 203.72 14.7617L201.136 17.9016C200.581 17.3985 200.008 16.9822 199.401 16.6699C198.794 16.3576 198.117 16.1842 197.337 16.1842C196.608 16.1842 195.931 16.3403 195.272 16.6699C194.63 16.9822 194.058 17.4505 193.589 18.0403C193.121 18.6302 192.739 19.3588 192.462 20.2088C192.184 21.0588 192.046 22.0303 192.046 23.1058C192.046 25.3263 192.514 27.0437 193.468 28.258C194.405 29.4723 195.671 30.0795 197.267 30.0795C198.152 30.0795 198.933 29.8886 199.626 29.507C200.32 29.1254 200.927 28.6396 201.448 28.0672L204.015 31.103C202.229 33.2367 199.904 34.2775 197.076 34.2775Z" fill="#474BFF"/>
<path d="M207.297 33.8919V12.3984H212.137V21.1936H212.276L218.677 12.3984H224.02L217.515 20.9681L225.199 33.8919H219.891L214.652 24.8365L212.154 28.1325V33.8919H207.297Z" fill="#474BFF"/>
<path d="M227.539 33.8919V12.3984H240.983V16.4924H232.379V20.8119H239.7V24.8712H232.379V29.8152H241.313V33.9092H227.539V33.8919Z" fill="#474BFF"/>
<path d="M245.602 33.8919V12.3984H253.356C254.501 12.3984 255.576 12.5025 256.565 12.728C257.571 12.9536 258.439 13.3179 259.185 13.8383C259.931 14.3587 260.52 15.0352 260.971 15.9026C261.405 16.7526 261.631 17.8282 261.631 19.0945C261.631 20.6732 261.284 21.9742 260.59 22.9977C259.896 24.0212 258.976 24.7845 257.797 25.2876L262.671 33.8919H257.242L253.113 26.1549H250.441V33.8919H245.602V33.8919ZM250.441 22.2865H252.94C254.206 22.2865 255.177 22.0263 255.854 21.4711C256.53 20.9334 256.86 20.1354 256.86 19.0772C256.86 18.019 256.53 17.2904 255.854 16.8741C255.177 16.4577 254.206 16.2496 252.94 16.2496H250.441V22.2865Z" fill="#474BFF"/>
<path d="M271.898 34.2724C270.493 34.2724 269.088 34.0122 267.7 33.4917C266.312 32.9713 265.063 32.208 263.953 31.1672L266.729 27.8365C267.492 28.4957 268.342 29.0334 269.279 29.4498C270.216 29.8661 271.135 30.0743 272.037 30.0743C273.043 30.0743 273.806 29.8835 274.292 29.5192C274.795 29.1375 275.038 28.6345 275.038 28.0099C275.038 27.6803 274.969 27.4028 274.83 27.1599C274.691 26.9171 274.483 26.7089 274.205 26.5181C273.928 26.3272 273.598 26.1538 273.217 25.9976C272.835 25.8242 272.401 25.6507 271.95 25.4599L269.157 24.2803C268.602 24.0547 268.082 23.7772 267.561 23.4302C267.041 23.0833 266.59 22.6669 266.174 22.1986C265.775 21.7302 265.445 21.1751 265.202 20.5506C264.959 19.926 264.838 19.2148 264.838 18.4168C264.838 17.5321 265.029 16.7168 265.393 15.9361C265.775 15.1555 266.295 14.479 266.972 13.8891C267.648 13.2993 268.463 12.8483 269.4 12.5187C270.337 12.1891 271.36 12.0156 272.488 12.0156C273.737 12.0156 274.969 12.2585 276.2 12.7442C277.415 13.2299 278.49 13.9238 279.41 14.8606L276.912 17.8964C276.2 17.3413 275.507 16.9249 274.795 16.63C274.084 16.3351 273.321 16.179 272.453 16.179C271.621 16.179 270.961 16.3525 270.458 16.6821C269.973 17.029 269.712 17.4974 269.712 18.1219C269.712 18.4515 269.799 18.7291 269.955 18.9546C270.111 19.1801 270.354 19.3883 270.649 19.5791C270.944 19.7699 271.291 19.9434 271.69 20.0995C272.089 20.273 272.523 20.4465 272.974 20.6373L275.749 21.7649C277.068 22.2853 278.109 23.0139 278.872 23.9333C279.635 24.8527 280.017 26.0844 280.017 27.5936C280.017 28.4957 279.843 29.3457 279.479 30.1437C279.115 30.9417 278.594 31.6529 277.9 32.2601C277.207 32.8672 276.357 33.353 275.35 33.7172C274.31 34.0989 273.165 34.2724 271.898 34.2724Z" fill="#474BFF"/>
</g>
<g clip-path="url(#clip1_3393_185)">
<rect width="48" height="48" fill="#474BFF"/>
<path d="M48 0H0V48H48V0Z" fill="#474BFF"/>
<path d="M15.5969 13.6016H10.7969V34.4016H15.5969V13.6016Z" fill="white"/>
<path d="M25.1984 13.6016H20.3984V34.4016H25.1984V13.6016Z" fill="white"/>
<path d="M33.1984 21.6016H24.3984V26.4016H33.1984V21.6016Z" fill="white"/>
<path d="M37.1984 13.6016H32.3984V34.4016H37.1984V13.6016Z" fill="white"/>
</g>
<defs>
<clipPath id="clip0_3393_185">
<rect width="220" height="22.2741" fill="white" transform="translate(60 12)"/>
</clipPath>
<clipPath id="clip1_3393_185">
<rect width="48" height="48" fill="white"/>
</clipPath>
</defs>
</svg>
