<svg width="160" height="120" viewBox="0 0 160 120" fill="none" xmlns="http://www.w3.org/2000/svg">
<path d="M118.013 52.5587L110.874 51.7011C110.144 48.978 109.076 46.4053 107.7 44.0182L112.138 38.3769C112.817 37.5097 112.74 36.169 111.956 35.3882L104.599 28.0284C103.824 27.2509 102.481 27.1677 101.61 27.8461L95.9593 32.2907C93.5819 30.9148 91.0091 29.846 88.2924 29.1229L87.4381 21.9839C87.3069 20.8928 86.299 20 85.1982 20H74.7922C73.6914 20 72.6834 20.8928 72.5554 21.9839L71.6979 29.1229C68.978 29.8492 66.4021 30.9211 64.0247 32.2939L58.3769 27.8557C57.5129 27.1773 56.169 27.2573 55.3913 28.0349L48.0317 35.3978C47.2573 36.1721 47.1773 37.5161 47.8589 38.3864L52.2939 44.031C50.918 46.4118 49.8492 48.9877 49.1229 51.7108L41.9871 52.5651C40.896 52.6931 40 53.701 40 54.805V65.211C40 66.3118 40.8928 67.3133 41.9871 67.4477L49.126 68.3052C49.8556 71.0188 50.9211 73.5914 52.2971 75.9721L47.8621 81.6231C47.1869 82.4903 47.2637 83.831 48.0444 84.6118L55.3913 91.9748C56.169 92.7491 57.5129 92.8354 58.3769 92.1571L64.0279 87.7093C66.4086 89.0852 68.9812 90.1572 71.7011 90.8803L72.5587 98.0161C72.6899 99.1104 73.6947 100 74.7954 100H85.2014C86.3053 100 87.3101 99.1104 87.4381 98.0161L88.2957 90.8803C91.0188 90.1508 93.5914 89.082 95.969 87.7093L101.62 92.1476C102.487 92.8259 103.828 92.7459 104.606 91.9683L111.962 84.6054C112.742 83.831 112.822 82.4871 112.141 81.6136L107.7 75.969C109.079 73.5882 110.144 71.0156 110.874 68.2989L118.01 67.4413C119.104 67.3101 119.997 66.3118 119.997 65.2046V54.7986C120 53.6914 119.11 52.6899 118.013 52.5587ZM80.0016 79.9976C68.9557 79.9976 60.0024 71.0443 60.0024 59.9984C60.0024 48.9524 68.9557 39.9992 80.0016 39.9992C91.0476 39.9992 100.001 48.9524 100.001 59.9984C100.001 71.0443 91.0508 79.9976 80.0016 79.9976Z" fill="#474BFF"/>
</svg>
