<svg width="140" height="48" viewBox="0 0 140 48" fill="none" xmlns="http://www.w3.org/2000/svg">
<g clip-path="url(#clip0_3393_186)">
<path d="M125.848 19.5638C127.525 19.5638 128.884 18.2046 128.884 16.528C128.884 14.8514 127.525 13.4922 125.848 13.4922C124.172 13.4922 122.812 14.8514 122.812 16.528C122.812 18.2046 124.172 19.5638 125.848 19.5638Z" fill="#474BFF"/>
<path d="M82.4839 29.4665C83.9732 29.4665 84.8324 28.3496 84.7751 27.2613C84.7465 26.6885 84.6892 26.3162 84.6319 26.0298C83.7154 22.0775 80.5078 19.1562 76.6987 19.1562C72.1737 19.1562 68.5078 23.2517 68.5078 28.2923C68.5078 33.3329 72.1737 37.4283 76.6987 37.4283C79.5341 37.4283 81.5675 36.3973 83.0281 34.7648C83.7441 33.9629 83.6009 32.7314 82.7417 32.13C82.0257 31.6431 81.1379 31.815 80.4792 32.3591C79.8491 32.9033 78.6462 33.9916 76.6987 33.9916C74.4076 33.9916 72.4601 32.0154 72.0305 29.4092H82.4839V29.4665ZM76.6701 22.6216C78.7322 22.6216 80.5078 24.2255 81.1665 26.4307H72.1737C72.8324 24.1968 74.6081 22.6216 76.6701 22.6216Z" fill="#474BFF"/>
<path d="M68.6799 20.9673C68.6799 20.1082 68.0498 19.4208 67.2479 19.2776C64.7563 18.9053 62.4078 19.8218 61.0618 21.5115V21.2824C61.0618 20.2227 60.2026 19.564 59.3434 19.564C58.3983 19.564 57.625 20.3373 57.625 21.2824V35.3158C57.625 36.2323 58.3123 37.0342 59.2288 37.0914C60.2312 37.1487 61.0618 36.3755 61.0618 35.3731V28.1272C61.0618 24.9196 63.4675 22.2848 66.7897 22.6571C66.9042 22.6571 67.0188 22.6571 67.1333 22.6571C67.9925 22.5998 68.6799 21.8552 68.6799 20.9673V20.9673Z" fill="#474BFF"/>
<path d="M127.562 22.7965C127.562 21.8514 126.788 21.0781 125.843 21.0781C124.898 21.0781 124.125 21.8514 124.125 22.7965C124.125 22.8538 124.125 34.8251 124.125 35.3693C124.125 36.3144 124.898 37.0877 125.843 37.0877C126.788 37.0877 127.562 36.3144 127.562 35.3693C127.562 34.8538 127.562 22.8824 127.562 22.7965Z" fill="#474BFF"/>
<path d="M102.017 13.2887C102.017 12.3436 101.244 11.5703 100.299 11.5703C99.3539 11.5703 98.5806 12.3436 98.5806 13.2887V20.9355C97.4064 19.7612 95.9458 19.1885 94.1987 19.1885C89.6737 19.1885 86.0078 23.2839 86.0078 28.3245C86.0078 33.3651 89.6737 37.4605 94.1987 37.4605C95.9458 37.4605 97.435 36.8591 98.6092 35.6849C98.7524 36.4868 99.4684 37.0882 100.299 37.0882C101.244 37.0882 102.017 36.3149 102.017 35.3698V13.2887V13.2887ZM94.2274 34.0524C91.5925 34.0524 89.4732 31.5035 89.4732 28.3245C89.4732 25.1741 91.5925 22.5966 94.2274 22.5966C96.8622 22.5966 98.9816 25.1455 98.9816 28.3245C98.9816 31.5035 96.8336 34.0524 94.2274 34.0524Z" fill="#474BFF"/>
<path d="M119.947 13.2887C119.947 12.3436 119.174 11.5703 118.229 11.5703C117.284 11.5703 116.51 12.3436 116.51 13.2887V20.9355C115.336 19.7612 113.875 19.1885 112.128 19.1885C107.603 19.1885 103.938 23.2839 103.938 28.3245C103.938 33.3651 107.603 37.4605 112.128 37.4605C113.875 37.4605 115.365 36.8591 116.539 35.6849C116.682 36.4868 117.398 37.0882 118.229 37.0882C119.174 37.0882 119.947 36.3149 119.947 35.3698V13.2887V13.2887ZM112.128 34.0524C109.494 34.0524 107.374 31.5035 107.374 28.3245C107.374 25.1741 109.494 22.5966 112.128 22.5966C114.763 22.5966 116.883 25.1455 116.883 28.3245C116.883 31.5035 114.763 34.0524 112.128 34.0524Z" fill="#474BFF"/>
<path d="M136.267 35.3971V22.6238H137.785C138.587 22.6238 139.303 22.0224 139.361 21.1918C139.418 20.304 138.702 19.5594 137.843 19.5594H136.267V17.1536C136.267 16.2372 135.58 15.4353 134.664 15.378C133.661 15.3207 132.831 16.094 132.831 17.0964V19.588H131.399C130.597 19.588 129.881 20.1894 129.824 21.02C129.766 21.9078 130.482 22.6525 131.341 22.6525H132.802V35.4257C132.802 36.3708 133.575 37.1441 134.52 37.1441C135.523 37.0868 136.267 36.3422 136.267 35.3971V35.3971Z" fill="#474BFF"/>
<path d="M24 48C37.2548 48 48 37.2548 48 24C48 10.7452 37.2548 0 24 0C10.7452 0 0 10.7452 0 24C0 37.2548 10.7452 48 24 48Z" fill="#474BFF"/>
<path d="M40.0087 23.9995C40.0087 22.052 38.4335 20.5054 36.5147 20.5054C35.5695 20.5054 34.7104 20.8777 34.0803 21.4792C31.6746 19.7608 28.381 18.6439 24.7151 18.5007L26.3189 10.9971L31.5314 12.114C31.5886 13.4314 32.6769 14.4911 34.023 14.4911C35.3977 14.4911 36.5147 13.3742 36.5147 11.9995C36.5147 10.6248 35.3977 9.50781 34.023 9.50781C33.0493 9.50781 32.1901 10.0806 31.7891 10.9112L25.9753 9.67965C25.8034 9.65101 25.6316 9.67965 25.517 9.76557C25.3738 9.85149 25.2879 9.99469 25.2593 10.1665L23.4836 18.5293C19.7605 18.6439 16.4096 19.7608 13.9753 21.5078C13.3452 20.9064 12.486 20.5341 11.5409 20.5341C9.59342 20.5341 8.04688 22.1092 8.04688 24.0281C8.04688 25.4601 8.90606 26.6629 10.1089 27.2071C10.0516 27.5508 10.023 27.8944 10.023 28.2668C10.023 33.651 16.2951 38.0329 24.0278 38.0329C31.7605 38.0329 38.0326 33.6796 38.0326 28.2668C38.0326 27.9231 38.0039 27.5508 37.9466 27.2071C39.1495 26.6629 40.0087 25.4314 40.0087 23.9995V23.9995ZM16.0087 26.4911C16.0087 25.1164 17.1256 23.9995 18.5003 23.9995C19.875 23.9995 20.992 25.1164 20.992 26.4911C20.992 27.8658 19.875 28.9828 18.5003 28.9828C17.1256 29.0114 16.0087 27.8658 16.0087 26.4911V26.4911ZM29.9562 33.1069C28.2378 34.8252 24.9729 34.9398 24.0278 34.9398C23.054 34.9398 19.7891 34.7966 18.0994 33.1069C17.8416 32.8491 17.8416 32.4481 18.0994 32.1904C18.3571 31.9326 18.7581 31.9326 19.0158 32.1904C20.1042 33.2787 22.3953 33.651 24.0278 33.651C25.6602 33.651 27.98 33.2787 29.0397 32.1904C29.2975 31.9326 29.6984 31.9326 29.9562 32.1904C30.1853 32.4481 30.1853 32.8491 29.9562 33.1069ZM29.4979 29.0114C28.1232 29.0114 27.0063 27.8944 27.0063 26.5197C27.0063 25.145 28.1232 24.0281 29.4979 24.0281C30.8726 24.0281 31.9896 25.145 31.9896 26.5197C31.9896 27.8658 30.8726 29.0114 29.4979 29.0114Z" fill="white"/>
</g>
<defs>
<clipPath id="clip0_3393_186">
<rect width="139.364" height="48" fill="white"/>
</clipPath>
</defs>
</svg>
