<svg width="220" height="48" viewBox="0 0 220 48" fill="none" xmlns="http://www.w3.org/2000/svg">
<path d="M77.2713 6.06179C75.9964 6.15126 75.2359 6.88939 75.2583 8.16432C75.2807 9.55108 76.153 10.1997 77.4503 10.2892C78.837 10.155 79.6646 9.37214 79.5975 8.05248C79.5304 6.73282 78.6581 5.97232 77.2713 6.06179Z" fill="#474BFF"/>
<path d="M118.898 25.0301C120.487 16.9332 113.351 10.3349 105.635 12.5269C100.267 14.0702 97.247 19.1923 97.9851 25.5669C98.9022 33.6191 106.708 37.9584 114.022 34.4243C116.706 33.1271 118.227 30.9351 118.787 27.6695L115.029 27.7366L114.693 28.6984C113.24 31.6285 110.399 32.7915 106.843 31.8521C103.823 31.0469 101.966 28.4523 102.123 25.0078C107.715 25.0301 113.329 25.0301 118.898 25.0301ZM107.715 15.5464C111.651 15.2557 114.291 17.3806 114.939 21.5856C110.6 21.5856 106.395 21.5856 102.168 21.5856C102.235 18.32 104.583 15.7701 107.715 15.5464Z" fill="#474BFF"/>
<path d="M90.5327 6.125C89.1236 6.125 87.9381 6.125 86.5514 6.125C86.5514 8.31699 86.5514 10.3971 86.5514 12.6562C85.1646 12.6562 83.9791 12.6562 82.7266 12.6562C82.7266 13.8193 82.7266 14.8258 82.7266 15.9889C84.0015 15.9889 85.187 15.9889 86.5737 15.9889C86.5737 16.8165 86.5737 17.4652 86.5737 18.1138C86.5961 22.4083 86.5514 26.7252 86.6408 31.0197C86.6856 33.2788 87.5355 34.4642 89.392 34.7326C91.2037 35.0011 93.0826 34.9339 94.9614 35.0234C94.9614 33.7261 94.9614 32.7196 94.9614 31.6012C94.2009 31.6012 93.5299 31.5565 92.8813 31.6012C91.1814 31.7578 90.4209 31.0868 90.5103 29.3198C90.5998 27.3738 90.5327 25.4503 90.5327 23.5043C90.5327 21.0439 90.5327 18.5835 90.5327 15.9666C92.1655 15.9666 93.5299 15.9666 94.9838 15.9666C94.9838 14.8482 94.9838 13.8864 94.9838 12.6562C93.4852 12.6562 92.1208 12.6562 90.5327 12.6562C90.5327 10.3748 90.5327 8.27225 90.5327 6.125Z" fill="#474BFF"/>
<path d="M75.6406 34.803C76.8932 34.803 78.0339 34.803 79.2417 34.803C79.2417 27.3994 79.2417 20.1301 79.2417 12.7266C78.0115 12.7266 76.8932 12.7266 75.6406 12.7266C75.6406 20.1972 75.6406 27.4889 75.6406 34.803Z" fill="#474BFF"/>
<path d="M19.3837 27.534C16.8786 25.2526 14.4182 22.904 11.9131 20.6226C10.6829 19.5042 10.4816 18.52 11.846 17.3122C13.5683 15.7689 15.2011 14.1584 16.8115 12.5033C19.0706 10.1771 21.2849 7.78378 23.1638 5.7931C21.6204 3.98136 19.9876 2.05778 18.243 0C12.271 5.7931 6.50022 11.3178 0.841324 16.932C-0.388872 18.1622 -0.232302 19.9292 1.065 21.1817C5.80684 25.767 10.6158 30.2852 15.5142 34.9152C16.9233 33.5732 18.2654 32.343 19.5403 31.0904C21.0389 29.5694 20.9718 29.0102 19.3837 27.534Z" fill="#474BFF"/>
<path d="M32.1768 21.0445C29.4928 18.5394 26.8087 16.0342 24.0575 13.4844C22.5813 14.8935 21.3064 16.1684 19.9643 17.3763C18.7342 18.4946 18.8013 19.4564 20.0538 20.5524C22.6708 22.901 25.2206 25.3166 27.8152 27.6875C28.9783 28.7612 29.0902 29.7677 27.8823 30.9084C25.243 33.4136 22.626 35.9634 20.0314 38.5133C18.667 39.8553 17.3474 41.2644 16.1172 42.5394C17.8842 44.3735 19.5841 46.1628 21.3287 47.997C21.6643 47.818 21.7985 47.7733 21.8879 47.7062C27.3903 42.4052 32.915 37.1041 38.3949 31.7807C39.983 30.2374 39.8264 28.2915 38.1265 26.6587C36.1358 24.7798 34.1675 22.901 32.1768 21.0445Z" fill="#474BFF"/>
<path d="M71.2063 28.0677C71.0944 25.6744 69.7524 24.064 67.6275 23.2587C65.8829 22.5877 64.0264 22.2522 62.2146 21.7154C60.6042 21.2233 58.9043 20.8654 57.4281 20.0826C55.6834 19.1655 55.7953 17.0407 57.607 16.2131C60.3358 14.9605 65.2342 14.871 66.5091 19.1432C67.717 19.1432 68.9024 19.1432 70.155 19.1432C70.0879 16.7946 69.2827 14.9158 67.3815 13.6185C64.2053 11.4265 57.4952 11.6278 54.3861 13.954C51.0758 16.4367 51.2994 21.2233 54.9229 23.1916C56.2202 23.9074 57.7412 24.2653 59.1727 24.6902C61.0963 25.2494 63.0646 25.6297 64.9434 26.2559C66.196 26.6809 67.1802 27.5085 67.046 29.0742C66.9117 30.6846 65.8381 31.4451 64.4737 31.7135C61.9015 32.2056 61.3871 32.1385 58.7254 31.6464C57.2268 31.378 56.1755 30.3939 55.661 28.8505L55.415 27.8664L51.6797 27.844C51.7244 30.5952 52.6638 32.7648 54.9453 33.9055C59.128 36.008 64.2277 35.9633 68.3656 33.7266C70.5352 32.5859 71.3181 30.4833 71.2063 28.0677Z" fill="#474BFF"/>
<path d="M219.168 15.8771C219.168 14.714 219.168 13.7746 219.168 12.6339C217.669 12.6339 216.238 12.6339 214.627 12.6339C214.627 10.3524 214.627 8.24988 214.627 6.125C213.24 6.125 212.055 6.125 210.646 6.125C210.646 8.31699 210.646 10.4195 210.646 12.6562C209.281 12.6562 208.163 12.6562 207 12.6562C207 13.8193 207 14.8035 207 15.9666C208.23 15.9666 209.349 15.9666 210.691 15.9666C210.691 16.8389 210.691 17.5546 210.691 18.248C210.735 22.6096 210.758 26.9712 210.847 31.3328C210.87 33.0998 211.742 34.4419 213.554 34.6879C215.388 34.9563 217.244 34.8892 219.145 34.9787C219.145 33.6814 219.145 32.6749 219.145 31.5341C218.184 31.5341 217.356 31.5341 216.506 31.5341C215.321 31.5565 214.672 30.9973 214.672 29.8119C214.672 25.2713 214.672 20.7308 214.672 15.8547C216.305 15.8771 217.714 15.8771 219.168 15.8771Z" fill="#474BFF"/>
<path d="M159.831 12.1447C153.322 11.675 148.58 15.9248 148.043 22.7468C147.484 29.9714 151.555 34.9369 158.444 35.4513C165.042 35.9658 169.918 31.716 170.41 25.0282C170.992 17.5799 166.966 12.6815 159.831 12.1447ZM157.974 31.9844C154.038 31.3358 151.823 27.6452 152.271 22.4112C152.606 18.4075 155.447 15.5669 159.16 15.5445C163.499 15.5222 166.295 18.7878 166.295 23.8651C166.25 29.3451 162.738 32.7896 157.974 31.9844Z" fill="#474BFF"/>
<path d="M177.117 6.0594C175.775 5.9923 174.903 6.64095 174.791 8.02772C174.679 9.43685 175.529 10.1079 176.894 10.3092C178.146 10.1973 179.086 9.52632 179.108 8.20666C179.13 6.99883 178.415 6.1265 177.117 6.0594Z" fill="#474BFF"/>
<path d="M139.679 13.3956C135.899 11.226 130.687 11.7852 126.818 14.8271V12.7693C125.52 12.7693 124.357 12.7693 123.172 12.7693C123.172 23.0135 123.172 33.1235 123.172 43.3676C124.424 43.3676 125.588 43.3676 126.952 43.3676C126.952 39.7665 126.952 36.2772 126.952 32.4301C130.665 35.6733 134.512 36.1654 138.538 34.7339C142.587 33.3024 144.264 29.9473 144.868 25.9212C145.606 20.6873 143.504 15.5876 139.679 13.3956ZM140.842 24.02C140.752 25.2278 140.551 26.4357 140.193 27.5764C139.299 30.4618 137.241 31.9827 134.311 32.0946C131.269 32.2064 128.898 30.842 127.757 28.1803C126.505 25.2726 126.482 22.2754 127.757 19.3676C128.876 16.7954 130.933 15.4981 133.752 15.5205C138.136 15.5428 141.2 19.1663 140.842 24.02Z" fill="#474BFF"/>
<path d="M203.551 18.319C203.417 14.7402 201.023 12.6377 197.467 12.2127C193.955 11.8101 190.712 12.5035 188.229 15.7244L188.207 12.7719C186.954 12.7719 185.791 12.7719 184.695 12.7719C184.695 20.2202 184.695 27.5343 184.695 34.826C185.993 34.826 187.178 34.826 188.52 34.826C188.52 33.976 188.52 33.2603 188.52 32.5445C188.542 28.7868 188.408 25.0068 188.632 21.2491C188.9 16.8875 192.591 14.7626 196.885 15.7467C198.406 16.0823 199.413 17.223 199.637 18.811C199.793 19.9965 199.838 21.2267 199.86 22.4345C199.883 26.5501 199.86 30.6433 199.86 34.8707C201.18 34.8707 202.298 34.8707 203.573 34.8707C203.618 29.2342 203.775 23.7766 203.551 18.319Z" fill="#474BFF"/>
<path d="M175.102 34.8499C176.354 34.8499 177.495 34.8499 178.747 34.8499C178.747 27.3569 178.747 20.0651 178.747 12.7734C177.472 12.7734 176.287 12.7734 175.102 12.7734C175.102 20.1993 175.102 27.4911 175.102 34.8499Z" fill="#474BFF"/>
</svg>
