<svg width="204" height="48" viewBox="0 0 204 48" fill="none" xmlns="http://www.w3.org/2000/svg">
<path d="M0 0H48V48H0V0Z" fill="#474BFF"/>
<path d="M22.4039 27.1917L14.0859 11.6719H17.9263L22.7263 21.4321C22.7263 21.5924 22.8866 21.7526 23.0468 21.9129C23.2071 22.0731 23.2071 22.2334 23.3673 22.552L23.5276 22.7123V22.8725C23.6878 23.193 23.6878 23.3533 23.8481 23.6738C24.0084 23.834 24.0084 24.1545 24.1686 24.3129C24.3289 23.8321 24.6494 23.5116 24.8077 22.8725C24.968 22.3917 25.2885 21.9129 25.609 21.4321L30.409 11.6719H33.9289L25.6109 27.3539V37.2744H22.4115L22.4039 27.1917Z" fill="white"/>
<path d="M67.2212 16.8611C69.2435 16.8611 70.9986 17.401 72.3494 18.4827L71.0005 20.1043C69.7853 19.2954 68.5719 18.7555 67.0896 18.7555C64.7945 18.7555 63.0412 19.9708 62.0969 22.2658C61.557 23.6146 61.288 25.3698 61.288 27.6649C61.288 29.42 61.5551 30.9043 61.9633 31.9841C63.0432 34.5482 64.7983 35.7615 67.4959 35.7615C68.9802 35.7615 70.3309 35.3571 71.5443 34.4127L72.8931 36.1679C71.1379 37.2477 69.2683 37.7895 67.2269 37.7895C64.7983 37.7895 62.7742 36.8452 61.1544 34.821C59.5328 32.9132 58.8594 30.3682 58.8594 27.2661C58.8594 24.1641 59.6683 21.7336 61.288 19.7113C62.7722 17.9561 64.7983 16.8763 67.2269 16.8763L67.2212 16.8611ZM74.9134 30.2213C74.9134 27.7927 75.4533 25.9021 76.6686 24.5552C77.8839 23.2083 79.3681 22.3956 81.2568 22.3956C83.4164 22.3956 85.1678 23.2045 86.385 24.9596C87.3293 26.3084 87.7338 28.1991 87.7338 30.4922C87.7338 33.1917 86.9249 35.3514 85.4387 36.7002C84.3212 37.6819 82.8776 38.2112 81.3904 38.1844C79.3681 38.1844 77.88 37.5091 76.6667 36.0248C75.4514 34.676 74.9115 32.6518 74.9115 30.2213H74.9134ZM84.3608 26.3103C83.6854 25.0951 82.7392 24.4026 81.2568 24.4026C79.7745 24.4026 78.8282 24.9425 78.1529 26.0242C77.6129 26.8331 77.4775 28.1838 77.4775 29.9351C77.4775 32.2302 77.7446 33.8461 78.4218 34.7943C79.0991 35.7425 80.0435 36.2785 81.3904 36.2785C83.012 36.2785 84.0899 35.4696 84.6298 33.9835C84.8969 33.1746 85.0342 32.0757 85.0342 30.744C85.1678 28.7218 84.9007 27.2337 84.3589 26.2913L84.3608 26.3103ZM92.0492 26.5774C92.0492 25.0932 91.9156 23.8779 91.5093 22.9526L93.8044 22.4127C94.2088 23.0881 94.3443 23.897 94.3443 24.5723V24.7059C94.8842 24.166 95.4241 23.6261 96.2521 23.2216C97.1964 22.6817 98.0072 22.4127 98.8161 22.4127C100.031 22.4127 101.111 22.9526 101.785 23.897C101.918 24.1641 102.189 24.5723 102.325 24.8413C103.946 23.2197 105.429 22.4127 107.048 22.4127C108.128 22.4127 109.07 22.8172 109.748 23.4925C110.423 24.3014 110.828 25.2477 110.828 26.3275V37.5262H108.363V26.4611C108.363 24.9768 107.687 24.3014 106.455 24.3014C105.78 24.3014 104.971 24.5685 104.295 25.1103C104.028 25.3774 103.486 25.7857 102.811 26.3256L102.544 26.5927V37.5243H99.9799V26.9819C99.9799 26.0375 99.8463 25.3603 99.5754 25.0741C99.171 24.6696 98.7665 24.5342 98.0912 24.5342C97.0114 24.5342 95.7961 25.2095 94.3137 26.5564V37.6216H92.0511L92.0492 26.5774ZM114.994 16.3212L117.423 15.7812C117.69 16.8611 117.827 18.0763 117.827 19.5587V24.5514C119.176 23.2026 120.662 22.5291 122.146 22.5291C123.902 22.5291 125.386 23.2045 126.33 24.5514C127.41 25.9002 127.952 27.7908 127.952 30.084C127.952 32.5126 127.412 34.4032 126.33 35.8874C125.249 37.3717 123.766 38.0471 122.011 38.0471C121.213 38.062 120.424 37.8764 119.716 37.5072C118.907 37.1027 118.367 36.6983 117.961 36.1584L117.556 37.78H115.261C115.528 37.1046 115.666 35.8722 115.666 34.0026V19.8277C115.532 18.2061 115.399 16.9927 114.99 16.3173L114.994 16.3212ZM118.905 25.4785C118.501 25.7456 118.096 26.1539 117.825 26.5584V34.2887C118.77 35.504 119.985 36.0439 121.45 36.0439C122.665 36.0439 123.61 35.6394 124.15 34.6951C124.825 33.6153 125.229 32.131 125.229 29.9714C125.229 28.0636 124.962 26.732 124.285 25.9231C123.745 25.1142 122.801 24.7078 121.45 24.7078C120.641 24.5743 119.695 24.8413 118.886 25.5167L118.905 25.4785ZM131.458 18.2289C131.458 17.689 131.592 17.2846 131.998 16.8801C132.405 16.4757 132.807 16.3402 133.347 16.3402C133.887 16.3402 134.291 16.4738 134.696 16.8801C135.1 17.2865 135.236 17.689 135.236 18.2289C135.236 18.7689 135.102 19.1733 134.696 19.5778C134.29 19.9822 133.887 20.1177 133.347 20.1177C132.807 20.1177 132.403 19.9841 131.998 19.5778C131.594 19.1714 131.458 18.7689 131.458 18.2289ZM132.019 37.6464V22.8038L134.448 22.3994V37.6502L132.019 37.6464ZM139.692 26.5774C139.692 25.4976 139.692 24.8223 139.559 24.5552C139.559 24.1507 139.292 23.7463 139.019 23.0709L141.314 22.3956C141.683 23.1033 141.869 23.8925 141.854 24.6906C143.338 23.2064 144.958 22.3956 146.578 22.3956C147.387 22.3956 148.062 22.5291 148.737 22.9355C149.413 23.3418 149.953 23.8798 150.222 24.5571C150.489 25.097 150.626 25.6369 150.626 26.3123V37.6483H148.331V27.5275C148.331 26.3123 148.197 25.5053 147.791 25.0989C147.581 24.8827 147.329 24.7114 147.05 24.5954C146.772 24.4793 146.473 24.4208 146.171 24.4235C145.631 24.4235 144.822 24.6906 144.012 25.0989C143.262 25.482 142.578 25.9832 141.988 26.5832V37.6483H139.692V26.5774ZM156.023 26.0375L154.808 24.4159C156.83 23.0671 158.856 22.3937 161.016 22.3937C163.175 22.3937 164.526 23.2026 165.2 24.6887C165.467 25.2286 165.467 26.0375 165.467 27.2528V28.0617L165.333 32.9208V33.5962C165.333 34.4051 165.333 34.945 165.467 35.3514C165.6 35.8913 166.007 36.2957 166.546 36.5666L165.331 38.1882C164.251 37.7838 163.576 37.1084 163.309 36.0286C161.96 37.3774 160.474 38.0509 158.99 38.0509C157.505 38.0509 156.29 37.6464 155.365 36.8356C154.556 36.1603 154.15 35.0805 154.15 33.7316C154.114 32.9592 154.282 32.191 154.638 31.5041C154.993 30.8173 155.523 30.2361 156.174 29.8188C157.523 28.8744 159.547 28.47 161.977 28.47H163.057V27.3902C163.057 26.1749 162.924 25.3679 162.517 25.0951C162.261 24.8186 161.947 24.6025 161.597 24.4626C161.248 24.3227 160.871 24.2624 160.495 24.2862C159.686 24.2862 158.74 24.5533 157.66 24.9615L156.038 26.0413L156.023 26.0375ZM163.177 34.0006L163.311 30.0897H162.096C159.936 30.0897 158.585 30.4941 157.776 31.3049C157.236 31.8448 156.967 32.6537 156.967 33.7336C156.967 35.4887 157.776 36.4331 159.532 36.4331C160.298 36.3892 161.038 36.1408 161.676 35.7137C162.313 35.2865 162.824 34.6963 163.156 34.0045L163.177 34.0006ZM173.163 22.7981H176.94L176.265 24.7059H173.161V34.2887C173.161 35.0976 173.294 35.6375 173.565 36.0439C173.832 36.311 174.374 36.5838 175.049 36.5838C175.589 36.5838 176.129 36.4502 176.534 36.3167L176.801 37.801C175.992 38.2054 175.179 38.3409 174.237 38.3409C171.942 38.3409 170.864 37.2611 170.864 34.9679V24.7116H168.84V22.8038H170.747V22.5367C170.747 22.2696 170.881 21.1879 171.015 19.4328V19.0264L173.443 18.4865C173.176 20.1081 173.176 21.5905 173.176 22.8057L173.163 22.7981ZM179.371 30.2194C179.371 27.7908 179.911 25.9002 181.126 24.5533C182.206 23.2045 183.825 22.3937 185.714 22.3937C187.874 22.3937 189.625 23.2026 190.842 24.9577C191.787 26.3065 192.191 28.1971 192.191 30.4903C192.191 33.1898 191.382 35.3494 189.896 36.6983C188.778 37.68 187.335 38.2092 185.848 38.1825C183.825 38.1825 182.337 37.5072 181.124 36.0229C180.044 34.6741 179.369 32.6499 179.369 30.2194H179.371ZM188.953 26.3084C188.278 25.0932 187.332 24.4006 185.849 24.4006C184.367 24.4006 183.421 24.9405 182.746 26.0223C182.206 26.8312 182.07 28.1819 182.07 29.9332C182.07 32.2283 182.337 33.8442 183.015 34.7924C183.692 35.7406 184.636 36.2766 185.983 36.2766C187.605 36.2766 188.683 35.4677 189.222 33.9816C189.49 33.1727 189.627 32.0738 189.627 30.7421C189.627 28.7199 189.36 27.2318 188.952 26.2894L188.953 26.3084ZM196.642 26.3046C196.642 24.9558 196.508 23.876 196.102 23.0652L198.397 22.3898C198.766 23.0976 198.952 23.8868 198.937 24.6849V24.952C200.152 23.3304 201.501 22.5234 203.121 22.5234C203.388 22.5234 203.661 22.5234 203.93 22.6569L202.985 25.221C202.718 25.0874 202.445 25.0874 202.31 25.0874C201.77 25.0874 201.095 25.221 200.555 25.6274C200.015 26.0337 199.475 26.4363 199.206 26.9762C199.028 27.4977 198.937 28.0449 198.937 28.5959V37.9059H196.642V26.3046Z" fill="#474BFF"/>
</svg>
